<svg xmlns="http://www.w3.org/2000/svg" viewBox="0 0 170.82 170.82"><defs><style>.cls-1{fill:#231f20;}.cls-2{fill:#010101;}.cls-3{fill:none;stroke:#231f20;stroke-miterlimit:10;stroke-width:5px;}</style></defs><title>Asset 14</title><g id="Layer_2" data-name="Layer 2"><g id="Layer_1-2" data-name="Layer 1"><path class="cls-1" d="M85.41,135.61a50.62,50.62,0,0,0,37.47-9.92l5.19,5.19a7,7,0,0,0,9.63.35,6.77,6.77,0,0,0,.15-9.73l-5.39-5.39A50.64,50.64,0,0,0,85.57,35.19v86.7Zm13.71-13.72V48.94a37.1,37.1,0,0,1,23.81,57.48l-4.7-4.7a6.77,6.77,0,1,0-9.58,9.58l4.7,4.7A37,37,0,0,1,99.12,121.89Z"/><path class="cls-2" d="M54,39.58a3.1,3.1,0,0,1,.85.08L79.9,45.93a2.86,2.86,0,0,1,2.16,2.75l.19,37.62v37.64a2.86,2.86,0,0,1-2.16,2.77L54.91,133a2.85,2.85,0,0,1-.87.07A6,6,0,1,1,53,127.46l7.91-7.85a10.64,10.64,0,0,0-1.09-16.06L42.68,90.64a6,6,0,1,1-.1-8.55h0L59.73,69.27A10.69,10.69,0,0,0,64,60.74a10.57,10.57,0,0,0-3.12-7.52L53,45.32a6,6,0,1,1,1-5.74Z"/><circle class="cls-3" cx="85.41" cy="85.41" r="82.91"/></g></g></svg>